<?xml version="1.0" ?><!DOCTYPE svg  PUBLIC '-//W3C//DTD SVG 1.1//EN'  'http://www.w3.org/Graphics/SVG/1.1/DTD/svg11.dtd'><svg enable-background="new 0 0 91 91" height="91px" id="Layer_1" version="1.1" viewBox="0 0 91 91" width="91px" xml:space="preserve" xmlns="http://www.w3.org/2000/svg" xmlns:xlink="http://www.w3.org/1999/xlink"><g><g><g><g><path d="M45.84,47.006c-2.168,0-3.932,1.768-3.932,3.935c0,2.166,1.764,3.928,3.932,3.928c2.166,0,3.928-1.762,3.928-3.928      C49.768,48.773,48.006,47.006,45.84,47.006z"/><path d="M88.375,25.757H75.906c0-1.387-1.125-2.512-2.514-2.512c-1.387,0-2.512,1.125-2.512,2.512H58.137      c-1.389,0-2.514,1.125-2.514,2.514c0,1.387,1.125,2.512,2.514,2.512h12.744v3.119c-1.92,0.898-3.258,2.844-3.258,5.101v0.332      h-3.625c-0.973-2.214-3.186-3.767-5.758-3.767H33.43c-2.568,0-4.779,1.553-5.75,3.767h-3.59v-0.332      c0-2.203-1.271-4.109-3.117-5.035v-3.186h12.467c1.389,0,2.514-1.125,2.514-2.512c0-1.389-1.125-2.514-2.514-2.514H20.973      c0-1.387-1.125-2.512-2.514-2.512c-1.387,0-2.512,1.125-2.512,2.512H3.201c-1.387,0-2.512,1.125-2.512,2.514      c0,1.387,1.125,2.512,2.512,2.512h12.746v3.186c-1.848,0.926-3.121,2.832-3.121,5.035v5.77c0,3.107,2.527,5.635,5.633,5.635      s5.631-2.528,5.631-5.635V44.36h3.594c0.891,2.033,2.824,3.509,5.121,3.738v3.8c0,0.084,0.012,0.166,0.014,0.248      c-2.086,0.58-4.422,2.164-5.549,5.746c-0.012,0.037-0.023,0.074-0.033,0.111L23.98,70.306h-1.186      c-1.389,0-2.514,1.125-2.514,2.512c0,1.389,1.125,2.514,2.514,2.514h6.869c1.389,0,2.514-1.125,2.514-2.514      c0-1.387-1.125-2.512-2.514-2.512h-0.486l2.9-10.957c0.533-1.648,1.412-2.207,2.113-2.383c1.748,2.973,4.971,4.979,8.662,4.979      h5.965c3.693,0,6.918-2.006,8.666-4.98c0.686,0.18,1.584,0.744,2.117,2.385l2.896,10.957h-0.484      c-1.387,0-2.512,1.125-2.512,2.512c0,1.389,1.125,2.514,2.512,2.514h6.867c1.389,0,2.514-1.125,2.514-2.514      c0-1.387-1.125-2.512-2.514-2.512h-1.184l-3.254-12.303c-0.01-0.037-0.021-0.074-0.033-0.111      c-1.127-3.584-3.465-5.168-5.553-5.746c0.002-0.084,0.014-0.164,0.014-0.248v-3.8c2.299-0.23,4.23-1.707,5.123-3.738h3.629      v0.412c0,3.107,2.527,5.635,5.635,5.635c3.104,0,5.629-2.528,5.629-5.635v-5.77c0-2.15-1.209-4.019-2.98-4.968v-3.252h12.469      c1.387,0,2.512-1.125,2.512-2.512C90.887,26.882,89.762,25.757,88.375,25.757z M19.064,44.772c0,0.33-0.277,0.609-0.605,0.609      c-0.33,0-0.607-0.279-0.607-0.609v-5.77c0-0.33,0.277-0.609,0.607-0.609c0.328,0,0.605,0.279,0.605,0.609V44.772z M58.24,43.104      h-1.914c-0.699,0-1.361,0.332-1.838,0.844c-0.475,0.51-0.713,1.238-0.662,1.936c0.008,0.119,0.02,0.238,0.02,0.361v5.653      c0,2.77-2.256,5.021-5.027,5.021h-5.965c-2.77,0-5.023-2.252-5.023-5.021v-5.653c0-0.141,0.012-0.279,0.023-0.416      c0.059-0.701-0.178-1.395-0.654-1.912c-0.475-0.518-1.146-0.813-1.85-0.813h-1.92c-0.637,0-1.162-0.512-1.227-1.135      c0.002-0.041,0.012-0.08,0.012-0.121s-0.01-0.08-0.012-0.121c0.064-0.623,0.59-1.135,1.227-1.135H58.24      c0.684,0,1.26,0.574,1.26,1.256C59.5,42.528,58.924,43.104,58.24,43.104z M73.861,44.772c0,0.33-0.275,0.609-0.604,0.609      c-0.33,0-0.609-0.279-0.609-0.609v-5.77c0-0.33,0.279-0.609,0.609-0.609c0.328,0,0.604,0.279,0.604,0.609V44.772z"/></g></g></g></g></svg>